<svg width="24" height="24" viewBox="0 0 24 24" fill="none" xmlns="http://www.w3.org/2000/svg">
  <path fill-rule="evenodd" clip-rule="evenodd" d="M12 10.1716L5.99177 4.16335C5.77499 3.94656 5.42692 3.94571 5.21276 4.15986L4.15986 5.21276C3.94742 5.42521 3.94727 5.77569 4.16335 5.99177L10.1716 12L4.16335 18.0082C3.94656 18.225 3.94571 18.5731 4.15986 18.7872L5.21276 19.8401C5.42521 20.0526 5.77569 20.0527 5.99177 19.8367L12 13.8284L18.0082 19.8367C18.225 20.0534 18.5731 20.0543 18.7872 19.8401L19.8401 18.7872C20.0526 18.5748 20.0527 18.2243 19.8367 18.0082L13.8284 12L19.8367 5.99177C20.0534 5.77499 20.0543 5.42692 19.8401 5.21276L18.7872 4.15986C18.5748 3.94742 18.2243 3.94727 18.0082 4.16335L12 10.1716Z" fill="currentColor"/>
</svg>
